<svg width="21" height="15" viewBox="0 0 21 15" fill="none" xmlns="http://www.w3.org/2000/svg">
<path d="M20.2598 2.20301C20.1459 1.78041 19.9233 1.39501 19.6142 1.08518C19.3051 0.775338 18.9202 0.551868 18.4978 0.437007C16.9318 0.00700739 10.6668 7.5965e-06 10.6668 7.5965e-06C10.6668 7.5965e-06 4.40283 -0.00699261 2.83583 0.404007C2.41376 0.524154 2.02966 0.750785 1.7204 1.06214C1.41114 1.3735 1.18712 1.75913 1.06983 2.18201C0.656834 3.74801 0.652833 6.99601 0.652833 6.99601C0.652833 6.99601 0.648834 10.26 1.05883 11.81C1.28883 12.667 1.96383 13.344 2.82183 13.575C4.40383 14.005 10.6518 14.012 10.6518 14.012C10.6518 14.012 16.9168 14.019 18.4828 13.609C18.9053 13.4943 19.2906 13.2714 19.6005 12.9622C19.9104 12.653 20.1342 12.2682 20.2498 11.846C20.6638 10.281 20.6668 7.03401 20.6668 7.03401C20.6668 7.03401 20.6868 3.76901 20.2598 2.20301ZM8.66283 10.005L8.66783 4.00501L13.8748 7.01001L8.66283 10.005Z" fill="#F7FFFB"/>
</svg>
